<svg enable-background="new 0 0 768 346" viewBox="0 0 768 346" xmlns="http://www.w3.org/2000/svg" xmlns:xlink="http://www.w3.org/1999/xlink"><linearGradient id="a" gradientUnits="userSpaceOnUse" x1="385" x2="385" y1="254.07" y2="49.84"><stop offset="0" stop-color="#0982fe"/><stop offset="1" stop-color="#3ca1d2"/></linearGradient><clipPath id="b"><path d="m465.8 117.9h115.9v47h-115.9z"/></clipPath><clipPath id="c"><path d="m427.8 110h-39.8v3.8c0 1.1-.9 2.1-2.1 2.1h-139.8c-1.1 0-2.1-.9-2.1-2.1v-3.8h-45.8c-2.6 0-4.7 2.1-4.7 4.7v113.5c0 2.6 2.1 4.7 4.7 4.7h229.5c2.6 0 4.7-2.1 4.7-4.7v-113.5c.1-2.6-2-4.7-4.6-4.7z"/></clipPath><path d="m157 3h456c8.8 0 16 7.1 16 15.9v306.2c0 8.8-7.2 15.9-16 15.9h-456c-8.8 0-16-7.1-16-15.9v-3.1-303c0-8.9 7.2-16 16-16" fill="#0b3051" stroke="#b2b2b2" stroke-miterlimit="10" stroke-width="3"/><path d="m159.4 26.4v283h451v-283z" fill="#89aed1" stroke="#0b3051" stroke-miterlimit="10"/><path d="m159 26v284h452v-284z" fill="url(#a)" stroke="#0b3051" stroke-miterlimit="10"/><path d="m650.9 346c13.6 0 26.1-6.5 26.1-6.5v-11.5h-586v11.5s12.5 6.5 26.1 6.5z" fill="#b2b2b2"/><path d="m433 328c0 .7-.1 1.3-.2 2-.8 4.6-4.4 8-8.6 8h-79.4c-4.3 0-7.8-3.4-8.6-8-.1-.7-.2-1.3-.2-2" fill="#666"/><path d="m589 223.5h-2" fill="none" stroke="#fff" stroke-miterlimit="10"/><path d="m585 223.5h-123" fill="none" stroke="#fff" stroke-dasharray="3.94 1.97" stroke-miterlimit="10"/><path d="m461 223.5h-2" fill="none" stroke="#fff" stroke-miterlimit="10"/><circle cx="476.7" cy="92.1" fill="none" r="3.6" stroke="#fff" stroke-miterlimit="10"/><circle cx="487.8" cy="92.1" fill="none" r="3.6" stroke="#fff" stroke-miterlimit="10"/><circle cx="498.9" cy="92.1" fill="none" r="3.6" stroke="#fff" stroke-miterlimit="10"/><path d="m466.2 117.2h116" fill="none" stroke="#fff" stroke-miterlimit="10"/><path d="m476.3 201.4h10.5c1.7 0 3.2 1.4 3.2 3.2v10.5c0 1.7-1.4 3.2-3.2 3.2h-10.5c-1.7 0-3.2-1.4-3.2-3.2v-10.5c0-1.8 1.4-3.2 3.2-3.2z" fill="#b1cae1" stroke="#fff" stroke-miterlimit="10"/><path d="m476.4 100.2h8.1c1.3 0 2.3 1 2.3 2.3v8c0 1.3-1 2.3-2.3 2.3h-8.1c-1.3 0-2.3-1-2.3-2.3v-8c0-1.3 1.1-2.3 2.3-2.3z" fill="none" stroke="#fff" stroke-miterlimit="10"/><path d="m491.2 100.2h8.1c1.3 0 2.3 1 2.3 2.3v8c0 1.3-1 2.3-2.3 2.3h-8.1c-1.3 0-2.3-1-2.3-2.3v-8c0-1.3 1-2.3 2.3-2.3z" fill="none" stroke="#fff" stroke-miterlimit="10"/><path d="m506 100.2h8.1c1.3 0 2.3 1 2.3 2.3v8c0 1.3-1 2.3-2.3 2.3h-8.1c-1.3 0-2.3-1-2.3-2.3v-8c0-1.3 1-2.3 2.3-2.3z" fill="none" stroke="#fff" stroke-miterlimit="10"/><path d="m520.7 100.2h8.1c1.3 0 2.3 1 2.3 2.3v8c0 1.3-1 2.3-2.3 2.3h-8.1c-1.3 0-2.3-1-2.3-2.3v-8c0-1.3 1.1-2.3 2.3-2.3z" fill="none" stroke="#fff" stroke-miterlimit="10"/><path d="m474.8 179.7h101.7" fill="none" stroke="#fff" stroke-linecap="round" stroke-width="3"/><path d="m519.3 181.6-2.9 2.9c-.3.3-.8.3-1.1 0l-2.9-2.9c-.6-.7-1-1.5-1-2.4v-2.7c0-.8.6-1.4 1.4-1.4h6.1c.8 0 1.4.6 1.4 1.4v2.7c0 .8-.3 1.7-1 2.4z" fill="#b1cae1" stroke="#fff" stroke-miterlimit="10"/><g fill="none"><path d="m478.1 184.8v2.2" stroke="#fff"/><path d="m501.6 185v2.3" stroke="#fff"/><path d="m525.6 185v2.3" stroke="#fff"/><path d="m549.1 185v2.3" stroke="#fff"/><path d="m572.6 185v2.3" stroke="#fff"/><g clip-path="url(#b)"><g stroke="#fff" stroke-miterlimit="10"><path d="m98.4 275 337.1-337.1"/><path d="m101.9 275.3 337.1-337.1" opacity=".99"/><path d="m105.4 275.5 337.1-337.1" opacity=".98"/><path d="m108.9 275.8 337.1-337.2" opacity=".97"/><path d="m112.4 276 337.1-337.1" opacity=".96"/><path d="m115.9 276.2 337.1-337.1" opacity=".95"/><path d="m119.4 276.5 337.1-337.2" opacity=".94"/><path d="m122.9 276.7 337.1-337.1" opacity=".93"/><path d="m126.4 276.9 337.1-337.1" opacity=".92"/><path d="m129.9 277.2 337.2-337.2" opacity=".91"/><path d="m133.5 277.4 337.1-337.1" opacity=".9"/><path d="m137 277.6 337.1-337.1" opacity=".89"/><path d="m140.5 277.9 337.1-337.1" opacity=".88"/><path d="m144 278.1 337.1-337.1" opacity=".87"/><path d="m147.5 278.3 337.1-337.1" opacity=".86"/><path d="m151 278.6 337.1-337.1" opacity=".85"/><path d="m154.5 278.8 337.1-337.1" opacity=".84"/><path d="m158 279 337.1-337.1" opacity=".83"/><path d="m161.5 279.3 337.1-337.1" opacity=".82"/><path d="m165 279.5 337.1-337.1" opacity=".81"/><path d="m168.5 279.7 337.1-337.1" opacity=".8"/><path d="m172 280 337.1-337.2" opacity=".79"/><path d="m175.6 280.2 337.1-337.1" opacity=".78"/><path d="m179.1 280.4 337.1-337.1" opacity=".77"/><path d="m182.6 280.7 337.1-337.2" opacity=".76"/><path d="m186.1 280.9 337.1-337.1" opacity=".75"/><path d="m189.6 281.1 337.1-337.1" opacity=".74"/><path d="m193.1 281.4 337.1-337.2" opacity=".73"/><path d="m196.6 281.6 337.1-337.1" opacity=".72"/><path d="m200.1 281.8 337.1-337.1" opacity=".71"/><path d="m203.6 282.1 337.1-337.1" opacity=".7"/><path d="m207.1 282.3 337.1-337.1" opacity=".69"/><path d="m210.6 282.5 337.1-337.1" opacity=".68"/><path d="m214.1 282.8 337.1-337.1" opacity=".67"/><path d="m217.6 283 337.2-337.1" opacity=".66"/><path d="m221.1 283.2 337.2-337.1" opacity=".65"/><path d="m224.7 283.5 337.1-337.1" opacity=".64"/><path d="m228.2 283.7 337.1-337.1" opacity=".63"/><path d="m231.7 283.9 337.1-337.1" opacity=".62"/><path d="m235.2 284.2 337.1-337.1" opacity=".61"/><path d="m238.7 284.4 337.1-337.1" opacity=".6"/><path d="m242.2 284.6 337.1-337.1" opacity=".59"/><path d="m245.7 284.9 337.1-337.1" opacity=".58"/><path d="m249.2 285.1 337.1-337.1" opacity=".57"/><path d="m252.7 285.3 337.1-337.1" opacity=".56"/><path d="m256.2 285.6 337.1-337.1" opacity=".55"/><path d="m259.7 285.8 337.1-337.1" opacity=".54"/><path d="m263.2 286 337.2-337.1" opacity=".53"/><path d="m266.8 286.3 337.1-337.1" opacity=".52"/><path d="m270.3 286.5 337.1-337.1" opacity=".51"/><path d="m273.8 286.7 337.1-337.1" opacity=".5"/><path d="m277.3 287 337.1-337.1" opacity=".5"/><path d="m280.8 287.2 337.1-337.1" opacity=".49"/><path d="m284.3 287.4 337.1-337.1" opacity=".48"/><path d="m287.8 287.7 337.1-337.1" opacity=".47"/><path d="m291.3 287.9 337.1-337.1" opacity=".46"/><path d="m294.8 288.1 337.1-337.1" opacity=".45"/><path d="m298.3 288.4 337.1-337.1" opacity=".44"/><path d="m301.8 288.6 337.1-337.1" opacity=".43"/><path d="m305.3 288.8 337.2-337.1" opacity=".42"/><path d="m308.9 289.1 337.1-337.1" opacity=".41"/><path d="m312.4 289.3 337.1-337.1" opacity=".4"/><path d="m315.9 289.5 337.1-337.1" opacity=".39"/><path d="m319.4 289.8 337.1-337.1" opacity=".38"/><path d="m322.9 290 337.1-337.1" opacity=".37"/><path d="m326.4 290.2 337.1-337.1" opacity=".36"/><path d="m329.9 290.5 337.1-337.1" opacity=".35"/><path d="m333.4 290.7 337.1-337.1" opacity=".34"/><path d="m336.9 290.9 337.1-337.1" opacity=".33"/><path d="m340.4 291.2 337.1-337.1" opacity=".32"/><path d="m343.9 291.4 337.1-337.1" opacity=".31"/><path d="m347.4 291.6 337.1-337.1" opacity=".3"/><path d="m350.9 291.9 337.1-337.1" opacity=".29"/><path d="m354.5 292.1 337.1-337.1" opacity=".28"/><path d="m358 292.3 337.1-337.1" opacity=".27"/><path d="m361.5 292.6 337.1-337.1" opacity=".26"/><path d="m365 292.8 337.1-337.1" opacity=".25"/><path d="m368.5 293 337.1-337.1" opacity=".24"/><path d="m372 293.3 337.1-337.1" opacity=".23"/><path d="m375.5 293.5 337.1-337.1" opacity=".22"/><path d="m379 293.8 337.1-337.2" opacity=".21"/><path d="m382.5 294 337.1-337.1" opacity=".2"/><path d="m386 294.2 337.1-337.1" opacity=".19"/><path d="m389.5 294.5 337.1-337.2" opacity=".18"/><path d="m393 294.7 337.1-337.1" opacity=".17"/><path d="m396.5 294.9 337.2-337.1" opacity=".16"/><path d="m400 295.1 337.2-337.1" opacity=".15"/><path d="m403.6 295.4 337.1-337.1" opacity=".14"/><path d="m407.1 295.6 337.1-337.1" opacity=".13"/><path d="m410.6 295.9 337.1-337.2" opacity=".12"/><path d="m414.1 296.1 337.1-337.1" opacity=".11"/><path d="m417.6 296.3 337.1-337.1" opacity=".1"/><path d="m421.1 296.5 337.1-337.1" opacity=".09"/><path d="m424.6 296.8 337.1-337.1" opacity=".08"/><path d="m428.1 297 337.1-337.1" opacity=".07"/><path d="m431.6 297.2 337.1-337.1" opacity=".06"/><path d="m435.1 297.5 337.1-337.1" opacity=".05"/><path d="m438.6 297.7 337.1-337.1" opacity=".04"/><path d="m442.1 298 337.1-337.2" opacity=".03"/><path d="m445.6 298.2 337.2-337.1" opacity=".02"/><path d="m449.2 298.4 337.1-337.1" opacity=".01"/></g><path d="m452.7 298.6 337.1-337.1"/></g><path d="m466.2 164.4h116" stroke="#fff" stroke-miterlimit="10"/><path d="m503.2 201.8h4c.6 0 1.1.5 1.1 1.1v4c0 .6-.5 1.1-1.1 1.1h-4c-.6 0-1.1-.5-1.1-1.1v-4c0-.6.5-1.1 1.1-1.1z" stroke="#fff" stroke-miterlimit="10"/><path d="m513 201.8h4c.6 0 1.2.5 1.2 1.1v4c0 .6-.5 1.1-1.2 1.1h-4c-.6 0-1.2-.5-1.2-1.1v-4c.1-.6.6-1.1 1.2-1.1z" stroke="#fff" stroke-miterlimit="10"/><path d="m522.8 201.8h4c.6 0 1.2.5 1.2 1.1v4c0 .6-.5 1.1-1.2 1.1h-4c-.6 0-1.2-.5-1.2-1.1v-4c.1-.6.6-1.1 1.2-1.1z" stroke="#fff" stroke-miterlimit="10"/><path d="m532.6 201.8h4c.6 0 1.2.5 1.2 1.1v4c0 .6-.5 1.1-1.2 1.1h-4c-.6 0-1.2-.5-1.2-1.1v-4c.1-.6.6-1.1 1.2-1.1z" stroke="#fff" stroke-miterlimit="10"/><path d="m542.4 201.8h4c.6 0 1.2.5 1.2 1.1v4c0 .6-.5 1.1-1.2 1.1h-4c-.6 0-1.2-.5-1.2-1.1v-4c.1-.6.6-1.1 1.2-1.1z" stroke="#fff" stroke-miterlimit="10"/><path d="m552.2 201.8h4c.6 0 1.2.5 1.2 1.1v4c0 .6-.5 1.1-1.2 1.1h-4c-.6 0-1.2-.5-1.2-1.1v-4c0-.6.6-1.1 1.2-1.1z" stroke="#fff" stroke-miterlimit="10"/><path d="m562 201.8h4c.6 0 1.2.5 1.2 1.1v4c0 .6-.5 1.1-1.2 1.1h-4c-.6 0-1.2-.5-1.2-1.1v-4c0-.6.6-1.1 1.2-1.1z" stroke="#fff" stroke-miterlimit="10"/><path d="m571.8 201.8h4c.6 0 1.2.5 1.2 1.1v4c0 .6-.5 1.1-1.2 1.1h-4c-.6 0-1.2-.5-1.2-1.1v-4c0-.6.6-1.1 1.2-1.1z" stroke="#fff" stroke-miterlimit="10"/><path d="m503.2 211.3h4c.6 0 1.1.5 1.1 1.1v4c0 .6-.5 1.1-1.1 1.1h-4c-.6 0-1.1-.5-1.1-1.1v-4c0-.6.5-1.1 1.1-1.1z" stroke="#fff" stroke-miterlimit="10"/><path d="m513 211.3h4c.6 0 1.2.5 1.2 1.1v4c0 .6-.5 1.1-1.2 1.1h-4c-.6 0-1.2-.5-1.2-1.1v-4c.1-.6.6-1.1 1.2-1.1z" stroke="#fff" stroke-miterlimit="10"/><path d="m522.8 211.3h4c.6 0 1.2.5 1.2 1.1v4c0 .6-.5 1.1-1.2 1.1h-4c-.6 0-1.2-.5-1.2-1.1v-4c.1-.6.6-1.1 1.2-1.1z" stroke="#fff" stroke-miterlimit="10"/><path d="m532.6 211.3h4c.6 0 1.2.5 1.2 1.1v4c0 .6-.5 1.1-1.2 1.1h-4c-.6 0-1.2-.5-1.2-1.1v-4c.1-.6.6-1.1 1.2-1.1z" stroke="#fff" stroke-miterlimit="10"/><path d="m542.4 211.3h4c.6 0 1.2.5 1.2 1.1v4c0 .6-.5 1.1-1.2 1.1h-4c-.6 0-1.2-.5-1.2-1.1v-4c.1-.6.6-1.1 1.2-1.1z" stroke="#fff" stroke-miterlimit="10"/><path d="m552.2 211.3h4c.6 0 1.2.5 1.2 1.1v4c0 .6-.5 1.1-1.2 1.1h-4c-.6 0-1.2-.5-1.2-1.1v-4c0-.6.6-1.1 1.2-1.1z" stroke="#fff" stroke-miterlimit="10"/><path d="m562 211.3h4c.6 0 1.2.5 1.2 1.1v4c0 .6-.5 1.1-1.2 1.1h-4c-.6 0-1.2-.5-1.2-1.1v-4c0-.6.6-1.1 1.2-1.1z" stroke="#fff" stroke-miterlimit="10"/><path d="m571.8 211.3h4c.6 0 1.2.5 1.2 1.1v4c0 .6-.5 1.1-1.2 1.1h-4c-.6 0-1.2-.5-1.2-1.1v-4c0-.6.6-1.1 1.2-1.1z" stroke="#fff" stroke-miterlimit="10"/></g><path d="m466.1 83.5h115v33h-115z" fill="#67b2ec"/><path d="m466 163h115v60h-115z" fill="#67b2ec"/><g stroke="#fff"><circle cx="476.5" cy="92" fill="#5aaef9" r="3.5" stroke-miterlimit="10"/><circle cx="487.5" cy="92" fill="#5aaef9" r="3.5" stroke-miterlimit="10"/><circle cx="498.5" cy="92" fill="#5aaef9" r="3.5" stroke-miterlimit="10"/><path d="m466.2 117.2h116" fill="none" stroke-miterlimit="10"/><path d="m476.2 199h10.6c1.8 0 3.2 1.4 3.2 3.2v10.6c0 1.8-1.4 3.2-3.2 3.2h-10.6c-1.8 0-3.2-1.4-3.2-3.2v-10.6c0-1.8 1.4-3.2 3.2-3.2z" fill="#5aaef9" stroke-miterlimit="10"/><path d="m474.9 100h8.2c1 0 1.9.9 1.9 1.9v8.2c0 1-.9 1.9-1.9 1.9h-8.2c-1 0-1.9-.9-1.9-1.9v-8.2c0-1 .9-1.9 1.9-1.9z" fill="none" stroke-miterlimit="10"/><path d="m489.9 100h8.2c1 0 1.9.9 1.9 1.9v8.2c0 1-.9 1.9-1.9 1.9h-8.2c-1 0-1.9-.9-1.9-1.9v-8.2c0-1 .9-1.9 1.9-1.9z" fill="none" stroke-miterlimit="10"/><path d="m504.9 100h8.2c1 0 1.9.9 1.9 1.9v8.2c0 1-.9 1.9-1.9 1.9h-8.2c-1 0-1.9-.9-1.9-1.9v-8.2c0-1 .9-1.9 1.9-1.9z" fill="none" stroke-miterlimit="10"/><path d="m519.9 100h8.2c1 0 1.9.9 1.9 1.9v8.2c0 1-.9 1.9-1.9 1.9h-8.2c-1 0-1.9-.9-1.9-1.9v-8.2c0-1 .9-1.9 1.9-1.9z" fill="none" stroke-miterlimit="10"/><path d="m473 179h102" fill="none" stroke-linecap="round" stroke-width="3"/><path d="m518.9 180.6-2.9 2.9c-.3.3-.8.3-1.1 0l-2.8-2.9c-.6-.7-1-1.5-1-2.4v-2.7c0-.8.6-1.4 1.4-1.4h6.1c.8 0 1.4.6 1.4 1.4v2.7c-.1.9-.4 1.7-1.1 2.4z" fill="#5aaef9" stroke-miterlimit="10"/><g fill="none"><path d="m476 185v3"/><path d="m499.6 185v3"/><path d="m524 185v3"/><path d="m548 185v3"/><path d="m572 185.1v3"/><path d="m465 163h116" stroke-miterlimit="10"/><path d="m501.6 200h4c.6 0 1.1.5 1.1 1.1v4c0 .6-.5 1.1-1.1 1.1h-4c-.6 0-1.1-.5-1.1-1.1v-4c0-.6.5-1.1 1.1-1.1z" stroke-miterlimit="10"/><path d="m511.4 200h4c.6 0 1.2.5 1.2 1.1v4c0 .6-.5 1.1-1.2 1.1h-4c-.6 0-1.1-.5-1.1-1.1v-4c0-.6.5-1.1 1.1-1.1z" stroke-miterlimit="10"/><path d="m521.2 200h4c.6 0 1.2.5 1.2 1.1v4c0 .6-.5 1.1-1.2 1.1h-4c-.6 0-1.2-.5-1.2-1.1v-4c.1-.6.6-1.1 1.2-1.1z" stroke-miterlimit="10"/><path d="m531 200h4c.6 0 1.2.5 1.2 1.1v4c0 .6-.5 1.1-1.2 1.1h-4c-.6 0-1.2-.5-1.2-1.1v-4c.1-.6.6-1.1 1.2-1.1z" stroke-miterlimit="10"/><path d="m540.8 200h4c.6 0 1.2.5 1.2 1.1v4c0 .6-.5 1.1-1.2 1.1h-4c-.6 0-1.2-.5-1.2-1.1v-4c.1-.6.6-1.1 1.2-1.1z" stroke-miterlimit="10"/><path d="m550.6 200h4c.6 0 1.2.5 1.2 1.1v4c0 .6-.5 1.1-1.2 1.1h-4c-.6 0-1.2-.5-1.2-1.1v-4c.1-.6.6-1.1 1.2-1.1z" stroke-miterlimit="10"/><path d="m560.4 200h4c.6 0 1.2.5 1.2 1.1v4c0 .6-.5 1.1-1.2 1.1h-4c-.6 0-1.2-.5-1.2-1.1v-4c0-.6.6-1.1 1.2-1.1z" stroke-miterlimit="10"/><path d="m570.2 200h4c.6 0 1.2.5 1.2 1.1v4c0 .6-.5 1.1-1.2 1.1h-4c-.6 0-1.2-.5-1.2-1.1v-4c0-.6.6-1.1 1.2-1.1z" stroke-miterlimit="10"/><path d="m501.6 209.5h4c.6 0 1.1.5 1.1 1.1v4c0 .6-.5 1.1-1.1 1.1h-4c-.6 0-1.1-.5-1.1-1.1v-4c0-.6.5-1.1 1.1-1.1z" stroke-miterlimit="10"/><path d="m511.4 209.5h4c.6 0 1.2.5 1.2 1.1v4c0 .6-.5 1.1-1.2 1.1h-4c-.6 0-1.1-.5-1.1-1.1v-4c0-.6.5-1.1 1.1-1.1z" stroke-miterlimit="10"/><path d="m521.2 209.5h4c.6 0 1.2.5 1.2 1.1v4c0 .6-.5 1.1-1.2 1.1h-4c-.6 0-1.2-.5-1.2-1.1v-4c.1-.6.6-1.1 1.2-1.1z" stroke-miterlimit="10"/><path d="m531 209.5h4c.6 0 1.2.5 1.2 1.1v4c0 .6-.5 1.1-1.2 1.1h-4c-.6 0-1.2-.5-1.2-1.1v-4c.1-.6.6-1.1 1.2-1.1z" stroke-miterlimit="10"/><path d="m540.8 209.5h4c.6 0 1.2.5 1.2 1.1v4c0 .6-.5 1.1-1.2 1.1h-4c-.6 0-1.2-.5-1.2-1.1v-4c.1-.6.6-1.1 1.2-1.1z" stroke-miterlimit="10"/><path d="m550.6 209.5h4c.6 0 1.2.5 1.2 1.1v4c0 .6-.5 1.1-1.2 1.1h-4c-.6 0-1.2-.5-1.2-1.1v-4c.1-.6.6-1.1 1.2-1.1z" stroke-miterlimit="10"/><path d="m560.4 209.5h4c.6 0 1.2.5 1.2 1.1v4c0 .6-.5 1.1-1.2 1.1h-4c-.6 0-1.2-.5-1.2-1.1v-4c0-.6.6-1.1 1.2-1.1z" stroke-miterlimit="10"/><path d="m570.2 209.5h4c.6 0 1.2.5 1.2 1.1v4c0 .6-.5 1.1-1.2 1.1h-4c-.6 0-1.2-.5-1.2-1.1v-4c0-.6.6-1.1 1.2-1.1z" stroke-miterlimit="10"/><path d="m465.5 227v14.2" stroke-miterlimit="10"/><path d="m581.5 241.2v-14.2" stroke-miterlimit="10"/><path d="m470.4 237.4h106.2" stroke-miterlimit="10"/></g></g><path d="m471.4 238.9-5.4-1.5 5.4-1.4z" fill="#fff"/><path d="m575.6 238.9 5.4-1.5-5.4-1.4z" fill="#fff"/><path d="m465.5 229v-2" fill="none" stroke="#fff" stroke-miterlimit="10"/><path d="m465.5 225v-145" fill="none" stroke="#fff" stroke-dasharray="4.05 2.03" stroke-miterlimit="10"/><path d="m465.5 79v-2" fill="none" stroke="#fff" stroke-miterlimit="10"/><path d="m581.5 229v-2" fill="none" stroke="#fff" stroke-miterlimit="10"/><path d="m581.5 225v-145" fill="none" stroke="#fff" stroke-dasharray="4.05 2.03" stroke-miterlimit="10"/><path d="m581.5 79v-2" fill="none" stroke="#fff" stroke-miterlimit="10"/><path d="m589 83h-2" fill="none" stroke="#fff" stroke-miterlimit="10"/><path d="m585 83h-123" fill="none" stroke="#fff" stroke-dasharray="3.94 1.97" stroke-miterlimit="10"/><path d="m461 83h-2" fill="none" stroke="#fff" stroke-miterlimit="10"/><path d="m473.8 125h100.5c.7 0 1.2.6 1.2 1.2v9.5c0 .7-.6 1.2-1.2 1.2h-100.5c-.7 0-1.2-.6-1.2-1.2v-9.5c-.1-.6.5-1.2 1.2-1.2z" fill="#67b2ec" stroke="#fff" stroke-miterlimit="10"/><path d="m564.5 136.9v-11.9" fill="none" stroke="#fff" stroke-miterlimit="10"/><path d="m568 129.8 1.8-1.8 1.9 1.8" fill="none" stroke="#fff" stroke-linecap="round" stroke-miterlimit="10"/><path d="m571.7 132.2-1.9 1.8-1.8-1.8" fill="none" stroke="#fff" stroke-linecap="round" stroke-miterlimit="10"/><path d="m473.8 143h100.5c.7 0 1.2.6 1.2 1.2v9.5c0 .7-.6 1.2-1.2 1.2h-100.5c-.7 0-1.2-.6-1.2-1.2v-9.5c-.1-.6.5-1.2 1.2-1.2z" fill="#67b2ec" stroke="#fff" stroke-miterlimit="10"/><path d="m181.6 66.5h262.5v23h-262.5z" fill="#67b2ec"/><path d="m181 90h264" fill="none" stroke="#fff" stroke-miterlimit="10"/><path d="m347 72h91c1.1 0 2 .9 2 2v9c0 1.1-.9 2-2 2h-91c-1.1 0-2-.9-2-2v-9c0-1.1.9-2 2-2z" fill="none" stroke="#fff" stroke-miterlimit="10"/><path d="m268.2 72h16c1.1 0 2 .9 2 2v9c0 1.1-.9 2-2 2h-16c-1.1 0-2-.9-2-2v-9c0-1.1.9-2 2-2z" fill="none" stroke="#fff" stroke-miterlimit="10"/><path d="m230 72h12c1.1 0 2 .9 2 2v9c0 1.1-.9 2-2 2h-12c-1.1 0-2-.9-2-2v-9c0-1.1.9-2 2-2z" fill="none" stroke="#fff" stroke-miterlimit="10"/><path d="m246 72h12c1.1 0 2 .9 2 2v9c0 1.1-.9 2-2 2h-12c-1.1 0-2-.9-2-2v-9c0-1.1.9-2 2-2z" fill="none" stroke="#fff" stroke-miterlimit="10"/><circle cx="204.9" cy="78.6" fill="#5aaef9" r="3.5" stroke="#fff" stroke-miterlimit="10"/><circle cx="192.8" cy="78.6" fill="#5aaef9" r="3.5" stroke="#fff" stroke-miterlimit="10"/><circle cx="216.9" cy="78.6" fill="#5aaef9" r="3.5" stroke="#fff" stroke-miterlimit="10"/><path d="m246 105h140c1.1 0 2 .9 2 2v7c0 1.1-.9 2-2 2h-140c-1.1 0-2-.9-2-2v-7c0-1.1.9-2 2-2z" fill="#67b2ec" opacity=".7"/><path d="m246 105h140c1.1 0 2 .9 2 2v7c0 1.1-.9 2-2 2h-140c-1.1 0-2-.9-2-2v-7c0-1.1.9-2 2-2z" fill="none" stroke="#fff" stroke-miterlimit="10"/><g clip-path="url(#c)" fill="none"><g stroke="#fff" stroke-miterlimit="10"><path d="m-16 267.9 338.4-336.5"/><path d="m-12.1 268.1 338.3-336.5" opacity=".99"/><path d="m-8.3 268.4 338.4-336.6" opacity=".98"/><path d="m-4.5 268.6 338.4-336.5" opacity=".97"/><path d="m-.7 268.8 338.4-336.5" opacity=".96"/><path d="m3.1 269.1 338.4-336.5" opacity=".95"/><path d="m6.9 269.3 338.4-336.5" opacity=".94"/><path d="m10.7 269.5 338.4-336.5" opacity=".93"/><path d="m14.6 269.8 338.4-336.6" opacity=".92"/><path d="m18.4 270 338.4-336.5" opacity=".91"/><path d="m22.2 270.2 338.4-336.5" opacity=".9"/><path d="m26 270.5 338.4-336.6" opacity=".89"/><path d="m29.8 270.7 338.4-336.5" opacity=".88"/><path d="m33.6 270.9 338.4-336.5" opacity=".87"/><path d="m37.4 271.2 338.4-336.5" opacity=".86"/><path d="m41.3 271.4 338.4-336.5" opacity=".85"/><path d="m45.1 271.6 338.4-336.5" opacity=".84"/><path d="m48.9 271.9 338.4-336.6" opacity=".83"/><path d="m52.7 272.1 338.4-336.5" opacity=".82"/><path d="m56.5 272.3 338.4-336.5" opacity=".81"/><path d="m60.3 272.6 338.4-336.6" opacity=".8"/><path d="m64.1 272.8 338.4-336.5" opacity=".79"/><path d="m68 273 338.4-336.5" opacity=".78"/><path d="m71.8 273.3 338.4-336.5" opacity=".77"/><path d="m75.6 273.5 338.4-336.5" opacity=".76"/><path d="m79.4 273.7 338.4-336.5" opacity=".75"/><path d="m83.2 274 338.4-336.5" opacity=".74"/><path d="m87 274.2 338.4-336.5" opacity=".73"/><path d="m90.8 274.4 338.4-336.5" opacity=".72"/><path d="m94.7 274.6 338.4-336.5" opacity=".71"/><path d="m98.5 274.9 338.4-336.5" opacity=".7"/><path d="m102.3 275.1 338.4-336.5" opacity=".69"/><path d="m106.1 275.4 338.4-336.6" opacity=".68"/><path d="m109.9 275.6 338.4-336.5" opacity=".67"/><path d="m113.7 275.8 338.4-336.5" opacity=".66"/><path d="m117.6 276 338.4-336.5" opacity=".65"/><path d="m121.4 276.3 338.4-336.5" opacity=".64"/><path d="m125.2 276.5 338.4-336.5" opacity=".63"/><path d="m129 276.8 338.4-336.6" opacity=".62"/><path d="m132.8 277 338.4-336.5" opacity=".61"/><path d="m136.6 277.2 338.4-336.5" opacity=".6"/><path d="m140.4 277.5 338.4-336.6" opacity=".59"/><path d="m144.2 277.7 338.4-336.5" opacity=".58"/><path d="m148.1 277.9 338.4-336.5" opacity=".57"/><path d="m151.9 278.1 338.4-336.5" opacity=".56"/><path d="m155.7 278.4 338.4-336.5" opacity=".55"/><path d="m159.5 278.6 338.4-336.5" opacity=".54"/><path d="m163.3 278.9 338.4-336.6" opacity=".53"/><path d="m167.1 279.1 338.4-336.5" opacity=".52"/><path d="m170.9 279.3 338.5-336.5" opacity=".51"/><path d="m174.8 279.5 338.4-336.5" opacity=".5"/><path d="m178.6 279.8 338.4-336.5" opacity=".5"/><path d="m182.4 280 338.4-336.5" opacity=".49"/><path d="m186.2 280.2 338.4-336.5" opacity=".48"/><path d="m190 280.5 338.4-336.5" opacity=".47"/><path d="m193.8 280.7 338.4-336.5" opacity=".46"/><path d="m197.7 281 338.4-336.6" opacity=".45"/><path d="m201.5 281.2 338.4-336.5" opacity=".44"/><path d="m205.3 281.4 338.4-336.5" opacity=".43"/><path d="m209.1 281.6 338.4-336.5" opacity=".42"/><path d="m212.9 281.9 338.4-336.5" opacity=".41"/><path d="m216.7 282.1 338.4-336.5" opacity=".4"/><path d="m220.5 282.4 338.5-336.6" opacity=".39"/><path d="m224.4 282.6 338.4-336.5" opacity=".38"/><path d="m228.2 282.8 338.4-336.5" opacity=".37"/><path d="m232 283 338.4-336.5" opacity=".36"/><path d="m235.8 283.3 338.4-336.5" opacity=".35"/><path d="m239.6 283.5 338.4-336.5" opacity=".34"/><path d="m243.4 283.8 338.4-336.6" opacity=".33"/><path d="m247.2 284 338.5-336.5" opacity=".32"/><path d="m251.1 284.2 338.4-336.5" opacity=".31"/><path d="m254.9 284.5 338.4-336.6" opacity=".3"/><path d="m258.7 284.7 338.4-336.5" opacity=".29"/><path d="m262.5 284.9 338.4-336.5" opacity=".28"/><path d="m266.3 285.1 338.4-336.5" opacity=".27"/><path d="m270.1 285.4 338.4-336.5" opacity=".26"/><path d="m274 285.6 338.3-336.5" opacity=".25"/><path d="m277.8 285.9 338.4-336.6" opacity=".24"/><path d="m281.6 286.1 338.4-336.5" opacity=".23"/><path d="m285.4 286.3 338.4-336.5" opacity=".22"/><path d="m289.2 286.5 338.4-336.5" opacity=".21"/><path d="m293 286.8 338.4-336.5" opacity=".2"/><path d="m296.8 287 338.4-336.5" opacity=".19"/><path d="m300.6 287.2 338.4-336.5" opacity=".18"/><path d="m304.5 287.5 338.4-336.5" opacity=".17"/><path d="m308.3 287.7 338.4-336.5" opacity=".16"/><path d="m312.1 288 338.4-336.6" opacity=".15"/><path d="m315.9 288.2 338.4-336.5" opacity=".14"/><path d="m319.7 288.4 338.4-336.5" opacity=".13"/><path d="m323.5 288.6 338.4-336.5" opacity=".12"/><path d="m327.4 288.9 338.4-336.5" opacity=".11"/><path d="m331.2 289.1 338.4-336.5" opacity=".1"/><path d="m335 289.4 338.4-336.6" opacity=".09"/><path d="m338.8 289.6 338.4-336.5" opacity=".08"/><path d="m342.6 289.8 338.4-336.5" opacity=".07"/><path d="m346.4 290 338.4-336.5" opacity=".06"/><path d="m350.2 290.3 338.4-336.5" opacity=".05"/><path d="m354.1 290.5 338.4-336.5" opacity=".04"/><path d="m357.9 290.8 338.4-336.6" opacity=".03"/><path d="m361.7 291 338.4-336.5" opacity=".02"/><path d="m365.5 291.2 338.4-336.5" opacity=".01"/></g><path d="m369.3 291.5 338.4-336.6"/></g><path d="m427.8 110h-39.8v3.8c0 1.1-.9 2.1-2.1 2.1h-139.8c-1.1 0-2.1-.9-2.1-2.1v-3.8h-45.8c-2.6 0-4.7 2.1-4.7 4.7v113.5c0 2.6 2.1 4.7 4.7 4.7h229.5c2.6 0 4.7-2.1 4.7-4.7v-113.5c.1-2.6-2-4.7-4.6-4.7z" fill="none" stroke="#fff" stroke-miterlimit="10"/><path d="m292 105v11" fill="none" stroke="#fff" stroke-miterlimit="10"/><path d="m338 105v11" fill="none" stroke="#fff" stroke-miterlimit="10"/><path d="m181 60.6v2" fill="none" stroke="#fff" stroke-miterlimit="10"/><path d="m181 64.6v185.6" fill="none" stroke="#fff" stroke-dasharray="4.01 2.01" stroke-miterlimit="10"/><path d="m181 251.2v2" fill="none" stroke="#fff" stroke-miterlimit="10"/><path d="m444.6 60.6v2" fill="none" stroke="#fff" stroke-miterlimit="10"/><path d="m444.6 64.6v185.8" fill="none" stroke="#fff" stroke-dasharray="4.02 2.01" stroke-miterlimit="10"/><path d="m444.6 251.4v2" fill="none" stroke="#fff" stroke-miterlimit="10"/><path d="m451 66h-2" fill="none" stroke="#fff" stroke-miterlimit="10"/><path d="m447 66h-269" fill="none" stroke="#fff" stroke-dasharray="4 2" stroke-miterlimit="10"/><path d="m177 66h-2" fill="none" stroke="#fff" stroke-miterlimit="10"/><path d="m451 247.1h-2" fill="none" stroke="#fff" stroke-miterlimit="10"/><path d="m447 247.1h-269" fill="none" stroke="#fff" stroke-dasharray="4 2" stroke-miterlimit="10"/><path d="m177 247.1h-2" fill="none" stroke="#fff" stroke-miterlimit="10"/><path d="m287 66.5v-14" fill="none" stroke="#fff" stroke-miterlimit="10"/><path d="m345 52.5v14" fill="none" stroke="#fff" stroke-miterlimit="10"/><path d="m292.4 56h47.2" fill="none" stroke="#fff" stroke-miterlimit="10"/><path d="m293.4 57.5-5.4-1.5 5.4-1.5z" fill="#fff"/><path d="m338.6 57.5 5.4-1.5-5.4-1.5z" fill="#fff"/><path d="m444 261.6v-11.6l8.4 8.5h-5.1-.1z" fill="#fff"/><path d="m444.7 251.8v8.1l2.2-2.1.1-.1h3.7z" fill="#67b2ec"/><path d="m159.5 26.5h451v9h-451z" fill="#67b2ec"/><path d="m203.5 29h6c.3 0 .5.2.5.5v3c0 .3-.2.5-.5.5h-6c-.3 0-.5-.2-.5-.5v-3c0-.3.2-.5.5-.5z" fill="#b4d9f5"/><path d="m177 29h18c.3 0 .5.2.5.5v3c0 .3-.2.5-.5.5h-18c-.3 0-.5-.2-.5-.5v-3c0-.3.2-.5.5-.5z" fill="#b4d9f5"/><path d="m167 29c1.1 0 2 .9 2 2s-.9 2-2 2-2-.9-2-2 .9-2 2-2z" fill="#b4d9f5"/><path d="m550 29h25c.3 0 .5.2.5.5v3c0 .3-.2.5-.5.5h-25c-.3 0-.5-.2-.5-.5v-3c0-.3.2-.5.5-.5z" fill="#b4d9f5"/><path d="m582 29h3c.3 0 .5.2.5.5v3c0 .3-.2.5-.5.5h-3c-.3 0-.5-.2-.5-.5v-3c0-.3.2-.5.5-.5z" fill="#b4d9f5"/><path d="m539 29h6c.3 0 .5.2.5.5v3c0 .3-.2.5-.5.5h-6c-.3 0-.5-.2-.5-.5v-3c0-.3.2-.5.5-.5z" fill="#b4d9f5"/><path d="m598 29h6c.3 0 .5.2.5.5v3c0 .3-.2.5-.5.5h-6c-.3 0-.5-.2-.5-.5v-3c0-.3.2-.5.5-.5z" fill="#b4d9f5"/><path d="m216.5 29h6c.3 0 .5.2.5.5v3c0 .3-.2.5-.5.5h-6c-.3 0-.5-.2-.5-.5v-3c0-.3.2-.5.5-.5z" fill="#b4d9f5"/><path d="m230.5 29h7.5c.3 0 .5.2.5.5v3c0 .3-.2.5-.5.5h-7.5c-.3 0-.5-.2-.5-.5v-3c0-.3.2-.5.5-.5z" fill="#b4d9f5"/><path d="m245.5 29h5.5c.3 0 .5.2.5.5v3c0 .3-.2.5-.5.5h-5.5c-.3 0-.5-.2-.5-.5v-3c0-.3.2-.5.5-.5z" fill="#b4d9f5"/><circle cx="592" cy="31" fill="#b4d9f5" r="2"/><path d="m264 309.5v-33.4c0-1.2.9-2.1 2.1-2.1h244.8c1.2 0 2.1 1 2.1 2.1v33.4" fill="#67b2ec"/><path d="m277 281.7h20v20h-20z" fill="#b4d9f5"/><path d="m315.8 281.7h.4c5.4 0 9.8 4.4 9.8 9.8v.4c0 5.4-4.4 9.8-9.8 9.8h-.4c-5.4 0-9.8-4.4-9.8-9.8v-.4c0-5.4 4.4-9.8 9.8-9.8z" fill="#b4d9f5"/><path d="m341.1 281.7h.4c5.4 0 9.8 4.4 9.8 9.8v.4c0 5.4-4.4 9.8-9.8 9.8h-.4c-5.4 0-9.8-4.4-9.8-9.8v-.4c0-5.4 4.4-9.8 9.8-9.8z" fill="#b4d9f5"/><path d="m367 281.7h.4c5.4 0 9.8 4.4 9.8 9.8v.4c0 5.4-4.4 9.8-9.8 9.8h-.4c-5.4 0-9.8-4.4-9.8-9.8v-.4c.1-5.4 4.4-9.8 9.8-9.8z" fill="#b4d9f5"/><circle cx="287" cy="306" fill="#b4d9f5" r="1"/><circle cx="427" cy="306" fill="#b4d9f5" r="1"/><path d="m384.6 281.7h19.2v19.2h-19.2z" fill="#b4d9f5" transform="matrix(.9877 -.1564 .1564 .9877 -40.7109 65.2361)"/><path d="m449 304v-24" fill="none" stroke="#fff" stroke-miterlimit="10"/><path d="m489.4 297.7c0 1.8 3 3.3 6.7 3.3s6.7-1.5 6.7-3.3l1.8-15.9h-17z" fill="#b4d9f5"/><ellipse cx="496.1" cy="281.8" fill="#b4d9f5" rx="8.5" ry="2.8"/><path d="m480.6 284.6h-13.7l-1.1-1.3c-.2-.2-.4-.3-.6-.3h-5.5c-.3 0-.6.2-.7.4l-.6 1.1v15.6c0 .4.4.8.8.8h21.4c.4 0 .8-.3.8-.8v-14.9c0-.3-.4-.6-.8-.6z" fill="#b4d9f5"/><path d="m415.7 280.9 3.8 23.8" fill="none" stroke="#fff" stroke-dasharray="4 1" stroke-miterlimit="10"/><path d="m431.5 278.4 3.8 23.8" fill="none" stroke="#fff" stroke-dasharray="4 1" stroke-miterlimit="10"/><path d="m435.7 279.3-23.2 3.7" fill="none" stroke="#fff" stroke-dasharray="4 1" stroke-miterlimit="10"/><path d="m438.8 299-23.2 3.7" fill="none" stroke="#fff" stroke-dasharray="4 1" stroke-miterlimit="10"/><path d="m417.9 281.5h15v19h-15z" fill="#b4d9f5" transform="matrix(.9877 -.1564 .1564 .9877 -40.2807 70.1116)"/></svg>