<?xml version="1.0" standalone="no"?>
<!DOCTYPE svg PUBLIC "-//W3C//DTD SVG 20010904//EN"
 "http://www.w3.org/TR/2001/REC-SVG-20010904/DTD/svg10.dtd">
<svg version="1.0" xmlns="http://www.w3.org/2000/svg"
 width="600.000000pt" height="600.000000pt" viewBox="0 0 600.000000 600.000000"
 preserveAspectRatio="xMidYMid meet">
<metadata>
Created by potrace 1.14, written by Peter Selinger 2001-2017
</metadata>
<g transform="translate(0.000000,600.000000) scale(0.100000,-0.100000)"
fill="#000000" stroke="none">
<path d="M0 3000 l0 -3000 3000 0 3000 0 0 3000 0 3000 -3000 0 -3000 0 0
-3000z m3520 1700 c124 -37 160 -56 160 -84 0 -12 -138 -493 -387 -1346 -101
-349 -213 -734 -248 -855 -239 -827 -326 -1123 -335 -1142 -16 -37 -49 -37
-181 2 -168 49 -178 53 -186 83 -5 23 78 314 874 3052 47 162 92 303 101 313
22 25 51 21 202 -23z m1860 -607 c-313 -7 -790 -7 -790 0 0 4 206 6 458 5 251
-1 401 -4 332 -5z m490 -29 c0 -2 -7 -4 -15 -4 -8 0 -15 4 -15 10 0 5 7 7 15
4 8 -4 15 -8 15 -10z m-3805 -142 c6 -4 57 -55 113 -114 74 -78 102 -113 102
-132 0 -20 -29 -50 -133 -143 -73 -65 -240 -212 -370 -327 -130 -116 -237
-212 -236 -215 0 -4 147 -135 327 -293 428 -377 412 -361 412 -390 0 -29 -215
-258 -242 -258 -19 0 -77 49 -203 170 -44 42 -231 218 -415 390 -386 360 -380
354 -380 385 0 17 113 129 486 479 475 446 506 472 539 448z m2127 -164 c797
-747 788 -738 788 -766 0 -24 -71 -94 -480 -478 -264 -247 -489 -453 -500
-458 -30 -14 -53 4 -162 122 -74 79 -98 111 -98 132 0 28 3 30 569 533 86 76
157 142 159 146 3 8 -115 115 -448 410 -253 223 -280 251 -280 279 0 17 32 59
106 138 86 92 112 114 134 114 22 0 66 -36 212 -172z"/>
</g>
</svg>
